<?xml version="1.0" encoding="UTF-8"?>
<svg id="Layer_1" xmlns="http://www.w3.org/2000/svg" version="1.1" viewBox="0 0 290 290">
  <!-- Generator: Adobe Illustrator 29.5.0, SVG Export Plug-In . SVG Version: 2.1.0 Build 137)  -->
  <defs>
    <style>
      .st0 {
        fill: #fff;
      }
    </style>
  </defs>
  <path class="st0" d="M41.13,126.19h8.13v37.69h-8.13v-37.69Z"/>
  <path class="st0" d="M87.38,145.11c0-3.52.94-6.62,2.66-9.57,1.8-3.02,4.03-5.39,7.05-7.05s6.11-2.66,9.57-2.66,7.19,1.01,10.21,3.09c3.02,2.09,5.39,4.82,6.91,8.2l-7.62,2.16c-1.01-1.8-2.37-3.09-3.88-4.32-1.73-1.01-3.52-1.73-5.54-1.73s-4.03.58-5.75,1.58-3.09,2.45-3.88,4.17c-1.01,1.8-1.44,3.81-1.44,5.83s.36,4.03,1.44,5.83,2.37,3.09,3.88,4.17c1.73,1.01,3.67,1.58,5.75,1.58s3.88-.36,5.47-1.44,2.81-2.45,3.81-4.17l7.84,2.09c-1.58,3.38-3.88,6.11-6.83,8.13-3.09,2.09-6.55,3.09-10.21,3.09s-6.62-.94-9.57-2.45c-3.02-1.8-5.39-4.03-7.05-6.91-1.73-3.09-2.66-6.4-2.66-9.93h-.07l-.07.29-.02.02Z"/>
  <g>
    <path class="st0" d="M175.5,136.4v-8.06h1.15v8.13h-1.15v-.07Z"/>
    <path class="st0" d="M179.24,128.92c.58-.36,1.29-.58,2.16-.58s2.01.36,2.81.94v1.15c-.94-.65-1.8-1.01-2.81-1.01s-1.01.07-1.29.36c-.36.29-.58.36-.58.94s.07.58.36.79c.36.07.94.36,1.58.36.36.07.94.29,1.15.36.36.07.65.29.94.36.36.29.58.36.65.65.07.36.29.58.29,1.01,0,.79-.36,1.29-.94,1.73-.58.36-1.29.58-2.09.58s-1.01-.07-1.58-.29-1.01-.36-1.58-.65v-1.29c1.01.65,2.01,1.01,3.09,1.01s1.01-.07,1.29-.36c.36-.29.58-.36.58-.94s-.07-.58-.36-.79c-.36-.29-.79-.36-1.29-.58-1.01-.29-1.8-.36-2.09-.65-.79-.36-1.01-1.01-1.01-1.8-.29-.58,0-1.15.65-1.44h.07v.14Z"/>
    <path class="st0" d="M188.01,136.4v-6.91h-2.66v-1.01h6.83l-.36,1.01h-2.45v6.91h-1.37,0ZM191.18,136.4l3.09-8.13h1.15l3.31,8.13h-1.15l-.79-1.8h-3.88l-.65,1.8h-1.15.07,0ZM193.34,133.46h3.09l-1.58-3.81-1.58,3.81h.07Z"/>
    <path class="st0" d="M201.18,128.35l4.46,6.11v-6.11h1.01v8.13h-1.15l-4.46-6.4v6.26h-1.01v-7.98h1.15Z"/>
    <path class="st0" d="M208.51,135.4v-7.05h3.81c.79,0,1.29.29,1.8.58.36.36.65.94.65,1.58s-.07.79-.36,1.01-.36.58-.94.79c1.01.36,1.44,1.01,1.44,2.01s-.29,1.15-.65,1.58-1.01.58-1.8.58h-3.31l-.65-1.01h.07l-.07-.07h0ZM209.52,131.94h2.45c.36,0,.79-.07,1.01-.36s.36-.58.36-.94-.07-.65-.36-.94-.58-.36-1.01-.36h-2.45v2.66-.07h0ZM212.25,135.4c.36,0,.79-.07,1.01-.36.29-.29.36-.58.36-.94s-.07-.65-.36-.94-.65-.36-1.01-.36h-2.66v2.73h2.66v-.14h0Z"/>
    <path class="st0" d="M216.07,128.35h1.15v4.75c0,.65.29,1.15.65,1.73.36.36.94.58,1.58.58s1.01-.29,1.58-.58c.36-.36.65-1.01.65-1.73v-4.75h1.15v4.75c0,1.01-.36,1.8-1.01,2.45s-1.44.94-2.37.94-1.73-.36-2.37-.94-1.01-1.44-1.01-2.45v-4.75h0Z"/>
    <path class="st0" d="M224.99,136.4l-.65-1.01v-7.05h1.15v6.91h3.88v1.01h-4.46.07v.14h0Z"/>
    <path class="st0" d="M175.43,148.78v-8.13h6.11l-.36,1.01h-4.53v2.37h3.67l-.36,1.01h-3.09v3.52c-.07.07-1.29.07-1.29.07h-.07l-.07.14h0ZM179.96,148.78l3.09-8.13h1.15l3.31,8.13h-1.15l-.79-1.8h-3.88l-.65,1.8h-1.15.07,0ZM182.33,146.04h3.09l-1.58-3.81-1.58,3.81h.07Z"/>
    <path class="st0" d="M189.67,141.22c.58-.36,1.29-.58,2.16-.58s2.01.36,2.81.94v1.15c-.94-.65-1.8-1.01-2.81-1.01s-1.01.07-1.29.36c-.36.29-.58.36-.58.94s.07.58.36.79c.36.07.94.36,1.58.36.36.07.94.29,1.15.36.36.07.65.29.94.36.36.29.58.36.65.65.07.36.29.58.29,1.01,0,.79-.36,1.29-.94,1.73s-1.29.58-2.09.58-1.01-.07-1.58-.29c-.36-.07-1.01-.36-1.58-.65v-1.15c1.01.65,2.01,1.01,3.09,1.01s1.01-.07,1.29-.36c.36-.29.58-.36.58-.94s-.07-.58-.36-.79c-.36-.29-.79-.36-1.29-.58-1.01-.29-1.8-.36-2.09-.65-.79-.36-1.01-1.01-1.01-1.8-.29-.58,0-1.01.65-1.58h.07v.14Z"/>
    <path class="st0" d="M197.51,140.72v3.38h4.32v-3.38h1.15v8.13h-1.15v-3.52h-4.32v3.52h-1.15v-8.13h1.15Z"/>
    <path class="st0" d="M204.63,148.78v-8.13h1.15v8.13h-1.15Z"/>
    <path class="st0" d="M208.51,142.01c.79-.79,1.8-1.15,2.81-1.15s2.09.36,2.81,1.15c.79.79,1.15,1.8,1.15,2.81s-.36,2.09-1.15,2.81-1.8,1.15-2.81,1.15-2.09-.36-2.81-1.15c-.79-.79-1.15-1.8-1.15-2.81s.36-2.16,1.15-2.81ZM208.51,144.75c0,.79.29,1.58.79,2.09.58.58,1.15.94,2.09.94s1.58-.36,2.09-.94c.58-.58.79-1.29.79-2.09s-.29-1.58-.79-2.09c-.58-.58-1.15-.94-2.01-.94s-1.58.36-2.09.94c-.65.65-.94,1.44-.94,2.09h.07Z"/>
    <path class="st0" d="M218.01,140.72l4.46,6.11v-6.11h1.01v8.13h-1.15l-4.46-6.26v6.26h-1.15v-8.13h1.29-.07.07Z"/>
    <path class="st0" d="M176.43,154.24c.79-.79,1.8-1.15,2.81-1.15s1.58.29,2.16.65,1.01,1.01,1.44,1.8l-1.01.36c-.29-.58-.58-.94-1.01-1.15-.36-.36-1.01-.36-1.58-.36h0c-.79,0-1.44.36-2.01.94s-.79,1.29-.79,2.09.29,1.58.79,2.09,1.15.94,2.09.94,1.01-.07,1.58-.36c.36-.36.79-.65,1.01-1.15l1.01.36c-.36.79-.79,1.29-1.44,1.8-.65.36-1.29.65-2.16.65s-2.09-.36-2.81-1.15-1.15-1.8-1.15-2.81c-.07-1.58.29-2.66,1.01-3.38v-.22l.07.07v-.02Z"/>
    <path class="st0" d="M185.07,154.24c.79-.79,1.8-1.15,2.81-1.15s2.09.36,2.81,1.15,1.15,1.8,1.15,2.81-.36,2.09-1.15,2.81-1.8,1.15-2.81,1.15-2.09-.36-2.81-1.15-1.15-1.8-1.15-2.81.36-2.09,1.15-2.81ZM185.07,157.19c0,.79.29,1.58.79,2.09s1.15.94,2.09.94,1.58-.36,2.09-.94c.58-.58.79-1.29.79-2.09s-.29-1.58-.79-2.09-1.15-.94-2.01-.94-1.58.36-2.09.94c-.65.58-.94,1.15-.94,2.09h.07Z"/>
    <path class="st0" d="M193.27,161.15v-8.13h1.15l4.46,6.11v-6.11h1.15l4.46,6.11v-6.11h1.01v8.13h-1.15l-4.46-6.11v6.11h-1.15l-4.46-6.26v6.26h-1.01Z"/>
    <path class="st0" d="M207.36,160.14v-6.91h5.54v1.01h-4.53v2.37h3.88v1.01h-3.88v2.37h4.53v1.01h-4.89l-.65-.94v.07h0Z"/>
    <path class="st0" d="M215.2,154.24c.79-.79,1.8-1.15,2.81-1.15s1.58.29,2.16.65,1.01,1.01,1.44,1.8l-1.01.36c-.29-.58-.58-.94-1.01-1.15-.36-.36-1.01-.36-1.58-.36h0c-.79,0-1.44.36-2.01.94s-.79,1.29-.79,2.09.29,1.58.79,2.09c.58.58,1.15.94,2.09.94s1.01-.07,1.58-.36c.36-.36.79-.65,1.01-1.15l1.01.36c-.36.79-.79,1.29-1.44,1.8-.65.36-1.29.65-2.16.65s-2.09-.36-2.81-1.15-1.15-1.8-1.15-2.81c-.07-1.58.29-2.66,1.01-3.38v-.22l.07.07v-.02Z"/>
    <path class="st0" d="M222.25,153.24h6.4v1.01h-2.45v6.91h-1.15v-6.91h-2.66v-1.01h-.22.08Z"/>
    <path class="st0" d="M230.09,161.15v-8.13h1.15v8.13h-1.15Z"/>
    <path class="st0" d="M234.05,154.24c.79-.79,1.8-1.15,2.81-1.15s2.09.36,2.81,1.15c.79.79,1.15,1.8,1.15,2.81s-.36,2.09-1.15,2.81-1.8,1.15-2.81,1.15-2.09-.36-2.81-1.15-1.15-1.8-1.15-2.81c-.07-1.01.36-2.09,1.15-2.81ZM234.05,157.19c0,.79.29,1.58.79,2.09.58.58,1.15.94,2.09.94s1.58-.36,2.09-.94c.58-.58.79-1.29.79-2.09s-.29-1.58-.79-2.09-1.15-.94-2.01-.94-1.58.36-2.09.94c-.79.58-.94,1.15-.94,2.09h.07Z"/>
    <path class="st0" d="M243.4,153.24l4.46,6.11v-6.11h1.01v8.13h-1.15l-4.46-6.26v6.26h-1.01v-8.13h1.15Z"/>
  </g>
  <path class="st0" d="M163.41,135.69c-1.8-3.02-4.03-5.39-7.05-7.05-3.02-1.8-6.11-2.66-9.57-2.66s-6.62.94-9.57,2.66c-3.02,1.8-5.39,4.03-7.05,7.05-1.8,3.02-2.66,6.11-2.66,9.57s.94,6.62,2.66,9.57c1.8,3.02,4.03,5.39,7.05,6.91,3.02,1.8,6.11,2.45,9.57,2.45s6.62-.94,9.64-2.45c3.02-1.8,5.39-4.03,7.05-6.91,1.8-3.02,2.45-6.11,2.45-9.57s-.94-6.55-2.66-9.57h.14ZM139.53,138.85l5.83,5.83h-5.39l-5.83-5.83h5.39ZM134.07,151.65l5.83-5.83h5.39l-5.75,5.83h-5.47ZM146.15,152.01l-5.83,5.83v-5.39l5.83-5.83v5.39ZM146.15,143.89l-5.83-5.83v-5.39l5.83,5.83v5.39ZM147.37,138.56l5.83-5.83v5.39l-5.83,5.83v-5.39ZM153.13,157.91l-5.83-5.83v-5.39l5.83,5.83v5.39ZM153.92,151.65l-5.83-5.83h5.39l5.97,5.83h-5.54,0ZM153.49,144.68h-5.39l5.83-5.83h5.39l-5.83,5.83Z"/>
  <g>
    <polygon class="st0" points="55.59 141.51 55.59 163.88 63.72 163.88 63.72 148.49 83.36 148.49 83.36 141.51 55.59 141.51"/>
    <polygon class="st0" points="55.59 126.19 55.59 133.74 63.72 133.74 65.8 133.74 83.36 133.74 83.36 126.19 55.59 126.19"/>
  </g>
</svg>